<svg width="32" height="32" viewBox="0 0 32 32" fill="none" xmlns="http://www.w3.org/2000/svg">
<path d="M7.99609 26.3438H24.0039C26.4531 26.3438 27.6719 25.125 27.6719 22.7109V8.40234C27.6719 5.98828 26.4531 4.76953 24.0039 4.76953H7.99609C5.54688 4.76953 4.31641 5.97656 4.31641 8.40234V22.7109C4.31641 25.1367 5.54688 26.3438 7.99609 26.3438ZM7.82031 24.457C6.77734 24.457 6.20313 23.9063 6.20313 22.8164V11.7656C6.20313 10.6875 6.77734 10.125 7.82031 10.125H24.1563C25.1992 10.125 25.7852 10.6875 25.7852 11.7656V22.8164C25.7852 23.9063 25.1992 24.457 24.1563 24.457H7.82031ZM13.7148 14.332H14.4063C14.8164 14.332 14.9453 14.2148 14.9453 13.8047V13.1133C14.9453 12.7031 14.8164 12.5742 14.4063 12.5742H13.7148C13.3047 12.5742 13.1641 12.7031 13.1641 13.1133V13.8047C13.1641 14.2148 13.3047 14.332 13.7148 14.332ZM17.6055 14.332H18.2969C18.707 14.332 18.8477 14.2148 18.8477 13.8047V13.1133C18.8477 12.7031 18.707 12.5742 18.2969 12.5742H17.6055C17.1953 12.5742 17.0547 12.7031 17.0547 13.1133V13.8047C17.0547 14.2148 17.1953 14.332 17.6055 14.332ZM21.4961 14.332H22.1875C22.5977 14.332 22.7383 14.2148 22.7383 13.8047V13.1133C22.7383 12.7031 22.5977 12.5742 22.1875 12.5742H21.4961C21.0859 12.5742 20.957 12.7031 20.957 13.1133V13.8047C20.957 14.2148 21.0859 14.332 21.4961 14.332ZM9.82422 18.1641H10.5039C10.9258 18.1641 11.0547 18.0469 11.0547 17.6367V16.9453C11.0547 16.5352 10.9258 16.418 10.5039 16.418H9.82422C9.40234 16.418 9.27344 16.5352 9.27344 16.9453V17.6367C9.27344 18.0469 9.40234 18.1641 9.82422 18.1641ZM13.7148 18.1641H14.4063C14.8164 18.1641 14.9453 18.0469 14.9453 17.6367V16.9453C14.9453 16.5352 14.8164 16.418 14.4063 16.418H13.7148C13.3047 16.418 13.1641 16.5352 13.1641 16.9453V17.6367C13.1641 18.0469 13.3047 18.1641 13.7148 18.1641ZM17.6055 18.1641H18.2969C18.707 18.1641 18.8477 18.0469 18.8477 17.6367V16.9453C18.8477 16.5352 18.707 16.418 18.2969 16.418H17.6055C17.1953 16.418 17.0547 16.5352 17.0547 16.9453V17.6367C17.0547 18.0469 17.1953 18.1641 17.6055 18.1641ZM21.4961 18.1641H22.1875C22.5977 18.1641 22.7383 18.0469 22.7383 17.6367V16.9453C22.7383 16.5352 22.5977 16.418 22.1875 16.418H21.4961C21.0859 16.418 20.957 16.5352 20.957 16.9453V17.6367C20.957 18.0469 21.0859 18.1641 21.4961 18.1641ZM9.82422 22.0078H10.5039C10.9258 22.0078 11.0547 21.8789 11.0547 21.4688V20.7773C11.0547 20.3672 10.9258 20.25 10.5039 20.25H9.82422C9.40234 20.25 9.27344 20.3672 9.27344 20.7773V21.4688C9.27344 21.8789 9.40234 22.0078 9.82422 22.0078ZM13.7148 22.0078H14.4063C14.8164 22.0078 14.9453 21.8789 14.9453 21.4688V20.7773C14.9453 20.3672 14.8164 20.25 14.4063 20.25H13.7148C13.3047 20.25 13.1641 20.3672 13.1641 20.7773V21.4688C13.1641 21.8789 13.3047 22.0078 13.7148 22.0078ZM17.6055 22.0078H18.2969C18.707 22.0078 18.8477 21.8789 18.8477 21.4688V20.7773C18.8477 20.3672 18.707 20.25 18.2969 20.25H17.6055C17.1953 20.25 17.0547 20.3672 17.0547 20.7773V21.4688C17.0547 21.8789 17.1953 22.0078 17.6055 22.0078Z" fill="white"/>
</svg>
