<svg width="32" height="32" viewBox="0 0 32 32" fill="none" xmlns="http://www.w3.org/2000/svg">
<path d="M16 27.4922C22.5391 27.4922 27.9531 22.0664 27.9531 15.5391C27.9531 9 22.5273 3.58594 15.9883 3.58594C9.46094 3.58594 4.04688 9 4.04688 15.5391C4.04688 22.0664 9.47266 27.4922 16 27.4922ZM14.6875 21.2695C14.2891 21.2695 13.9609 21.1055 13.6563 20.6953L10.7148 17.0859C10.5391 16.8516 10.4336 16.5938 10.4336 16.3242C10.4336 15.7969 10.8438 15.3633 11.3711 15.3633C11.7109 15.3633 11.9688 15.4688 12.2617 15.8555L14.6406 18.9258L19.6445 10.8867C19.8672 10.5352 20.1719 10.3477 20.4766 10.3477C20.9922 10.3477 21.4727 10.6992 21.4727 11.25C21.4727 11.5078 21.3203 11.7773 21.1797 12.0234L15.6719 20.6953C15.4258 21.082 15.0859 21.2695 14.6875 21.2695Z" fill="white"/>
</svg>
