<svg width="32" height="32" viewBox="0 0 32 32" fill="none" xmlns="http://www.w3.org/2000/svg">
<path d="M8.72266 21.0938H23.2656C27.1094 21.0938 29.9688 18.1758 29.9688 14.5664C29.9688 10.8281 26.9219 8.09766 22.9492 8.09766C21.4844 5.20313 18.7656 3.33984 15.3789 3.33984C10.9727 3.33984 7.33984 6.79688 6.95313 11.1445C4.83203 11.7656 3.21484 13.6055 3.21484 16.0781C3.21484 18.8555 5.23047 21.0938 8.72266 21.0938ZM6.625 29.9063L10.0703 23.9414C10.2813 23.5664 10.1641 23.168 9.8125 22.9688C9.46094 22.7578 9.0625 22.8633 8.85156 23.2383L5.39453 29.2266C5.20703 29.5547 5.30078 29.9648 5.65234 30.1758C6.00391 30.375 6.42578 30.2578 6.625 29.9063ZM11.3008 29.9063L14.7344 23.9414C14.9453 23.5664 14.8398 23.168 14.4883 22.9688C14.125 22.7578 13.7266 22.8633 13.5156 23.2383L10.0703 29.2266C9.88281 29.5547 9.96484 29.9648 10.3281 30.1758C10.6797 30.375 11.1016 30.2578 11.3008 29.9063ZM15.9648 29.9063L19.3984 23.9414C19.6094 23.5664 19.5039 23.168 19.1523 22.9688C18.7891 22.7578 18.3906 22.8633 18.1797 23.2383L14.7344 29.2266C14.5469 29.5547 14.6289 29.9648 14.9922 30.1758C15.3438 30.375 15.7656 30.2578 15.9648 29.9063ZM20.5938 29.918L24.0625 23.918C24.2617 23.5664 24.1563 23.1445 23.8047 22.9688C23.4648 22.7813 23.0547 22.8633 22.8555 23.2266L19.4102 29.2031C19.1992 29.5547 19.3047 29.9648 19.6445 30.1758C19.9727 30.375 20.4063 30.2578 20.5938 29.918Z" fill="white"/>
</svg>
