<svg width="32" height="32" viewBox="0 0 32 32" fill="none" xmlns="http://www.w3.org/2000/svg">
<path d="M16 27.4922C22.5391 27.4922 27.9531 22.0664 27.9531 15.5391C27.9531 9 22.5273 3.58594 15.9883 3.58594C9.46094 3.58594 4.04688 9 4.04688 15.5391C4.04688 22.0664 9.47266 27.4922 16 27.4922ZM16 25.8984C10.3398 25.8984 5.64063 21.1992 5.64063 15.5391C5.64063 10.0313 10.082 5.42578 15.543 5.19141C15.1211 5.625 15.0977 6 15.0391 6.63281C14.6055 6.5625 14.1484 6.51563 13.8438 6.51563C13.0352 6.51563 12.3555 6.98438 11.0664 7.78125C9.78906 8.56641 10.7383 10.7109 12.4844 9.83203C13.3281 9.41016 13.9375 9.19922 14.2773 9.19922C15.0156 9.19922 18.3203 10.3594 18.3203 10.6992C18.3203 10.9688 17.8047 11.4023 17.2305 11.4023C16.3281 11.4023 14.7109 10.6875 12.7656 10.6875C10.2227 10.6875 8.04297 13.7227 8.04297 14.8242C8.04297 16.207 10.3633 18.5508 11.5234 18.5508C12.332 18.5508 13.1992 18.3984 13.832 18.3047C14.1484 18.2695 14.3359 18.3164 14.4648 18.5977C14.6289 18.9023 14.7461 19.3242 14.7461 19.9453C14.7461 21.1055 14.2773 24.75 16.7148 24.75C18.2617 24.75 19.8789 21.9727 20.9336 20.1914C21.8125 18.7148 22.5039 17.543 22.5039 16.6758C22.5039 15.6094 21.9648 15.0117 20.7109 14.2617C20.2305 13.9922 20.6055 13.5703 20.9219 13.8398C21.707 14.4727 22.1992 14.7422 22.7148 14.7422C23.5 14.7422 24.6836 14.1211 26.043 13.0078C26.2539 13.8164 26.3594 14.6602 26.3594 15.5391C26.3594 21.1992 21.6602 25.8984 16 25.8984ZM21.1211 9.55078C20.5117 9.55078 19.3398 8.91797 19.3398 8.4375C19.3398 7.99219 19.8789 7.88672 20.2656 7.88672C20.9102 7.88672 21.6836 8.50781 21.6836 8.92969C21.6836 9.33984 21.4258 9.55078 21.1211 9.55078Z" fill="white"/>
</svg>
