<svg width="32" height="32" viewBox="0 0 32 32" fill="none" xmlns="http://www.w3.org/2000/svg">
<path d="M5.86328 26.332H26.1367C28.5977 26.332 29.8164 25.125 29.8164 22.7109V8.39063C29.8164 5.97656 28.5977 4.75781 26.1367 4.75781H5.86328C3.41406 4.75781 2.18359 5.97656 2.18359 8.39063V22.7109C2.18359 25.125 3.41406 26.332 5.86328 26.332ZM4.07031 8.49609C4.07031 7.27734 4.71484 6.64453 5.88672 6.64453H26.1133C27.2734 6.64453 27.9297 7.27734 27.9297 8.49609V11.4141H4.07031V8.49609ZM23.8047 10.5352C24.6133 10.5117 25.293 9.84375 25.293 9.03516C25.293 8.21484 24.6133 7.52344 23.8047 7.52344C23.0078 7.52344 22.3164 8.21484 22.3164 9.03516C22.3164 9.84375 23.0078 10.5469 23.8047 10.5352ZM4.07031 17.9297V13.1836H27.9297V17.9297H4.07031ZM23.8047 17.0273C24.6133 17.0039 25.293 16.3359 25.293 15.5273C25.293 14.707 24.6133 14.0156 23.8047 14.0156C23.0078 14.0156 22.3164 14.707 22.3164 15.5273C22.3164 16.3359 23.0078 17.0391 23.8047 17.0273ZM5.88672 24.4453C4.71484 24.4453 4.07031 23.8242 4.07031 22.6055V19.6992H27.9297V22.6055C27.9297 23.8242 27.2734 24.4453 26.1133 24.4453H5.88672ZM23.8047 23.5195C24.6133 23.4961 25.293 22.8281 25.293 22.0195C25.293 21.1992 24.6133 20.5078 23.8047 20.5078C23.0078 20.5078 22.3164 21.1992 22.3164 22.0195C22.3164 22.8281 23.0078 23.5313 23.8047 23.5195Z" fill="white"/>
</svg>
