<svg width="32" height="32" viewBox="0 0 32 32" fill="none" xmlns="http://www.w3.org/2000/svg">
<path d="M5.86328 26.332H26.1367C28.5977 26.332 29.8164 25.125 29.8164 22.7109V8.39063C29.8164 5.97656 28.5977 4.75781 26.1367 4.75781H5.86328C3.41406 4.75781 2.18359 5.97656 2.18359 8.39063V22.7109C2.18359 25.125 3.41406 26.332 5.86328 26.332ZM11.125 15.5742C9.70703 15.5742 8.55859 14.3789 8.55859 12.7734C8.55859 11.2734 9.70703 10.0313 11.125 10.0313C12.5547 10.0313 13.6914 11.2734 13.6914 12.7734C13.6914 14.3789 12.5547 15.5859 11.125 15.5742ZM18.7656 11.6836C18.3438 11.6836 18.0273 11.3672 18.0273 10.957C18.0273 10.5586 18.3438 10.2422 18.7656 10.2422H25.1641C25.5742 10.2422 25.8906 10.5586 25.8906 10.957C25.8906 11.3672 25.5742 11.6836 25.1641 11.6836H18.7656ZM18.7656 16.2773C18.3438 16.2773 18.0273 15.9492 18.0273 15.5391C18.0273 15.1406 18.3438 14.8359 18.7656 14.8359H25.1641C25.5742 14.8359 25.8906 15.1406 25.8906 15.5391C25.8906 15.9492 25.5742 16.2773 25.1641 16.2773H18.7656ZM6.55469 20.9414C6.16797 20.9414 5.98047 20.6836 5.98047 20.332C5.98047 19.2305 7.62109 16.3945 11.125 16.3945C14.6289 16.3945 16.2813 19.2305 16.2813 20.332C16.2813 20.6836 16.0938 20.9414 15.707 20.9414H6.55469ZM18.7656 20.8594C18.3438 20.8594 18.0273 20.5547 18.0273 20.1563C18.0273 19.7461 18.3438 19.418 18.7656 19.418H25.1641C25.5742 19.418 25.8906 19.7461 25.8906 20.1563C25.8906 20.5547 25.5742 20.8594 25.1641 20.8594H18.7656Z" fill="white"/>
</svg>
