<svg width="32" height="32" viewBox="0 0 32 32" fill="none" xmlns="http://www.w3.org/2000/svg">
<path d="M16 5.28516C16.8086 5.28516 17.4531 4.62891 17.4531 3.82031C17.4531 3.01172 16.7969 2.36719 16 2.36719C15.1797 2.36719 14.5469 3.02344 14.5469 3.82031C14.5469 4.64063 15.1914 5.28516 16 5.28516ZM24.9766 9.01172C25.7852 9.01172 26.4297 8.35547 26.4297 7.55859C26.4297 6.73828 25.7734 6.10547 24.9766 6.10547C24.1563 6.10547 23.5117 6.75 23.5117 7.55859C23.5117 8.36719 24.168 9.01172 24.9766 9.01172ZM7.01172 9.03516C7.82031 9.03516 8.46484 8.37891 8.46484 7.58203C8.46484 6.76172 7.80859 6.12891 7.01172 6.12891C6.20313 6.12891 5.55859 6.77344 5.55859 7.58203C5.55859 8.39063 6.21484 9.03516 7.01172 9.03516ZM16 25.0195C20.6992 25.0195 24.5195 21.2227 24.5195 16.4883C24.5195 11.7773 20.6992 7.98047 16 7.98047C11.3008 7.98047 7.46875 11.7773 7.46875 16.4883C7.46875 18.4922 8.16016 20.332 9.32031 21.7852L15.4141 15.6797C15.7422 15.3516 16.3281 15.3516 16.6328 15.6797C16.9844 16.0547 16.9844 16.5703 16.6328 16.9219L10.5273 23.0273C12.0039 24.2695 13.9141 25.0195 16 25.0195ZM3.33203 17.9531C4.14063 17.9531 4.78516 17.2852 4.78516 16.4883C4.78516 15.668 4.11719 15.0352 3.33203 15.0352C2.52344 15.0352 1.86719 15.6914 1.86719 16.4883C1.86719 17.2969 2.53516 17.9531 3.33203 17.9531ZM28.668 17.9531C29.4766 17.9531 30.1328 17.2852 30.1328 16.4883C30.1328 15.668 29.4648 15.0352 28.668 15.0352C27.8477 15.0352 27.2031 15.6914 27.2031 16.4883C27.2031 17.2969 27.8711 17.9531 28.668 17.9531ZM7.01172 26.8711C7.82031 26.8711 8.46484 26.2266 8.46484 25.418C8.46484 24.6094 7.80859 23.9648 7.01172 23.9648C6.20313 23.9648 5.55859 24.6211 5.55859 25.418C5.55859 26.2383 6.21484 26.8711 7.01172 26.8711ZM24.9648 26.8828C25.7734 26.8828 26.418 26.2383 26.418 25.4297C26.418 24.6211 25.7617 23.9766 24.9648 23.9766C24.1445 23.9766 23.5 24.6328 23.5 25.4297C23.5 26.25 24.1563 26.8828 24.9648 26.8828Z" fill="white"/>
</svg>
