<svg width="32" height="32" viewBox="0 0 32 32" fill="none" xmlns="http://www.w3.org/2000/svg">
<path d="M6.78906 26.6133H25.1992C26.957 26.6133 28.0586 25.3477 28.0586 23.7539C28.0586 23.2734 27.9414 22.793 27.6836 22.3477L18.4609 5.88281C17.9336 4.93359 16.9609 4.42969 16 4.42969C15.0273 4.42969 14.0547 4.93359 13.5273 5.88281L4.31641 22.3594C4.07031 22.8047 3.92969 23.2734 3.92969 23.7539C3.92969 25.3477 5.03125 26.6133 6.78906 26.6133ZM16 18.7852C15.3906 18.7852 15.0625 18.4336 15.0508 17.8125L14.8867 11.4375C14.875 10.8164 15.332 10.3711 15.9883 10.3711C16.6328 10.3711 17.1133 10.8281 17.1016 11.4492L16.9375 17.8125C16.9258 18.4453 16.5859 18.7852 16 18.7852ZM16 22.7109C15.3086 22.7109 14.6992 22.1484 14.6992 21.457C14.6992 20.7539 15.2969 20.1914 16 20.1914C16.7148 20.1914 17.3125 20.7422 17.3125 21.457C17.3125 22.1602 16.7031 22.7109 16 22.7109Z" fill="white"/>
</svg>
