<svg width="32" height="32" viewBox="0 0 32 32" fill="none" xmlns="http://www.w3.org/2000/svg">
<path d="M16.0098 6.06519C16.7422 6.06519 17.2988 5.50854 17.2988 4.78589C17.2988 4.073 16.7227 3.49683 16.0098 3.49683C15.3164 3.49683 14.7305 4.08276 14.7305 4.78589C14.7305 5.49878 15.3066 6.06519 16.0098 6.06519ZM11.3516 8.7605C12.0742 8.7605 12.6309 8.19409 12.6309 7.47144C12.6309 6.75855 12.0645 6.19214 11.3516 6.19214C10.6484 6.19214 10.0723 6.76831 10.0723 7.47144C10.0723 8.18433 10.6387 8.7605 11.3516 8.7605ZM20.6777 8.7605C21.4004 8.7605 21.957 8.19409 21.957 7.47144C21.957 6.75855 21.3906 6.19214 20.6777 6.19214C19.9746 6.19214 19.3984 6.76831 19.3984 7.47144C19.3984 8.18433 19.9648 8.7605 20.6777 8.7605ZM16.0098 11.8464C16.9277 11.8464 17.6602 11.114 17.6602 10.196C17.6602 9.29761 16.918 8.55542 16.0098 8.55542C15.1211 8.55542 14.3691 9.30737 14.3691 10.196C14.3691 11.1042 15.1113 11.8464 16.0098 11.8464ZM6.69336 11.4851C7.41602 11.4851 7.97266 10.9187 7.97266 10.196C7.97266 9.48315 7.39648 8.91675 6.69336 8.91675C5.99023 8.91675 5.4043 9.49292 5.4043 10.196C5.4043 10.9089 5.98047 11.4851 6.69336 11.4851ZM25.3066 11.4851C26.0293 11.4851 26.5859 10.9187 26.5859 10.196C26.5859 9.48315 26.0195 8.91675 25.3066 8.91675C24.6035 8.91675 24.0176 9.50269 24.0176 10.196C24.0176 10.9089 24.5938 11.4851 25.3066 11.4851ZM11.3516 14.5417C12.2695 14.5417 12.9922 13.8191 12.9922 12.9011C12.9922 11.9929 12.25 11.2605 11.3516 11.2605C10.4629 11.2605 9.71094 12.0125 9.71094 12.9011C9.71094 13.8093 10.4434 14.5417 11.3516 14.5417ZM20.6777 14.5417C21.5957 14.5417 22.3184 13.8191 22.3184 12.9011C22.3184 11.9929 21.5762 11.2605 20.6777 11.2605C19.7891 11.2605 19.0371 12.0125 19.0371 12.9011C19.0371 13.8093 19.7695 14.5417 20.6777 14.5417ZM16.0098 17.491C17.0547 17.491 17.8945 16.6609 17.8945 15.616C17.8945 14.5808 17.0449 13.741 16.0098 13.741C14.9941 13.741 14.1348 14.5906 14.1348 15.616C14.1348 16.6511 14.9844 17.491 16.0098 17.491ZM6.69336 16.8953C7.41602 16.8953 7.97266 16.3386 7.97266 15.616C7.97266 14.9031 7.39648 14.3367 6.69336 14.3367C5.99023 14.3367 5.4043 14.9128 5.4043 15.616C5.4043 16.3289 5.98047 16.8953 6.69336 16.8953ZM26.4785 16.1238C26.5469 15.9675 26.5859 15.7917 26.5859 15.616C26.5859 14.9031 26.0195 14.3367 25.3066 14.3367C24.6035 14.3367 24.0176 14.9128 24.0176 15.616C24.0176 15.7722 24.0566 15.9382 24.125 16.114C24.4863 15.948 24.8867 15.8406 25.3066 15.8406C25.7168 15.8406 26.127 15.948 26.4785 16.1238ZM11.3516 19.9714C12.2598 19.9714 12.9922 19.2488 12.9922 18.3308C12.9922 17.4226 12.25 16.6804 11.3516 16.6804C10.4629 16.6804 9.71094 17.4324 9.71094 18.3308C9.71094 19.2292 10.4531 19.9714 11.3516 19.9714ZM20.6777 19.9714C20.9414 19.9714 21.1855 19.9031 21.4004 19.7957L22.2988 18.1746V18.1257C22.2012 17.3152 21.5176 16.6804 20.6777 16.6804C19.7891 16.6804 19.0371 17.4324 19.0371 18.3308C19.0371 19.2292 19.7793 19.9714 20.6777 19.9714ZM21.0684 27.364H29.5254C30.3359 27.364 30.8535 26.7976 30.8535 26.0554C30.8535 25.8308 30.7949 25.616 30.668 25.4011L26.4297 17.8425C26.1758 17.3933 25.7363 17.1785 25.3066 17.1785C24.8574 17.1785 24.4082 17.3933 24.1641 17.8425L19.9355 25.4109C19.8086 25.616 19.75 25.8308 19.75 26.0554C19.75 26.7976 20.2578 27.364 21.0684 27.364ZM16.0098 22.6765C16.9277 22.6765 17.6602 21.9441 17.6602 21.0261C17.6602 20.1277 16.918 19.3855 16.0098 19.3855C15.1211 19.3855 14.3691 20.1375 14.3691 21.0261C14.3691 21.9343 15.1113 22.6765 16.0098 22.6765ZM25.3066 23.5457C24.9648 23.5457 24.7207 23.3113 24.7109 22.9792L24.6328 20.196C24.623 19.7957 24.8965 19.5222 25.3066 19.5222C25.707 19.5222 25.9805 19.7957 25.9707 20.196L25.8926 22.9792C25.8828 23.3113 25.6484 23.5457 25.3066 23.5457ZM6.69336 22.3152C7.41602 22.3152 7.97266 21.7585 7.97266 21.0261C7.97266 20.323 7.39648 19.7468 6.69336 19.7468C5.99023 19.7468 5.4043 20.3328 5.4043 21.0261C5.4043 21.7488 5.9707 22.3152 6.69336 22.3152ZM11.3516 25.0398C12.0742 25.0398 12.6309 24.4832 12.6309 23.7605C12.6309 23.0476 12.0645 22.4714 11.3516 22.4714C10.6484 22.4714 10.0723 23.0574 10.0723 23.7605C10.0723 24.4734 10.6387 25.0398 11.3516 25.0398ZM25.2969 25.8796C24.8477 25.8796 24.4766 25.5085 24.4766 25.0496C24.4766 24.6003 24.8574 24.2292 25.2969 24.2292C25.7559 24.2292 26.127 24.6101 26.127 25.0496C26.127 25.5085 25.7559 25.8796 25.2969 25.8796ZM16.0098 27.7253C16.7422 27.7253 17.2988 27.1687 17.2988 26.446C17.2988 25.7332 16.7227 25.1667 16.0098 25.1667C15.3164 25.1667 14.7305 25.7429 14.7305 26.446C14.7305 27.1589 15.3066 27.7253 16.0098 27.7253Z" fill="white"/>
</svg>
