<svg width="32" height="32" viewBox="0 0 32 32" fill="none" xmlns="http://www.w3.org/2000/svg">
<path d="M11.0294 26.2799H20.961C22.7676 26.2799 23.6465 25.4107 23.6758 23.6139L23.8028 14.024L26.1954 14.5709C27.1036 14.776 27.6895 14.4049 27.9141 13.4674L28.7833 10.0006C29.0176 9.07286 28.6661 8.42832 27.7774 8.05723L20.9024 5.12754C20.5118 4.95176 20.1505 4.96153 19.7891 5.13731C18.5001 5.75254 17.4551 6.06504 16.0001 6.06504C14.5352 6.06504 13.4903 5.75254 12.2012 5.13731C11.8399 4.96153 11.4786 4.95176 11.088 5.12754L4.21295 8.05723C3.32428 8.42832 2.98248 9.07286 3.20709 10.0006L4.07623 13.4674C4.30084 14.4049 4.88678 14.776 5.79498 14.5709L8.19733 14.024L8.31451 23.6139C8.34381 25.4107 9.22272 26.2799 11.0294 26.2799ZM16.0001 9.11192C14.3301 9.11192 13.1583 8.25254 12.6602 6.83653C13.6856 7.22715 14.838 7.442 16.0001 7.442C17.1524 7.442 18.3145 7.22715 19.3301 6.83653C18.8419 8.23301 17.6895 9.11192 16.0001 9.11192Z" fill="white"/>
</svg>
