<svg width="32" height="32" viewBox="0 0 32 32" fill="none" xmlns="http://www.w3.org/2000/svg">
<path d="M8.53516 26.8711C8.53516 27.3633 8.92188 27.7617 9.4375 27.7617C16.4688 27.7617 21.9766 22.9805 21.9766 15.5391C21.9766 12.2578 19.2695 9.55078 16 9.55078C14.8047 9.55078 13.6914 9.94922 12.8125 10.6172C14.5234 7.14844 18.1797 5.08594 22.5625 5.08594C23.0781 5.08594 23.4648 4.6875 23.4648 4.19531C23.4648 3.70313 23.0781 3.31641 22.5625 3.31641C15.5313 3.31641 10.0352 8.08594 10.0352 15.5391C10.0352 18.8086 12.7422 21.5156 16 21.5156C17.207 21.5156 18.3086 21.1172 19.1875 20.4609C17.4766 23.9297 13.8086 25.9922 9.4375 25.9922C8.92188 25.9922 8.53516 26.3789 8.53516 26.8711ZM14.3008 15.5391C14.3008 14.6016 15.0742 13.8398 16 13.8398C16.9375 13.8398 17.6992 14.6016 17.6992 15.5391C17.6992 16.4531 16.9375 17.2383 16 17.2383C15.0742 17.2383 14.3008 16.4648 14.3008 15.5391Z" fill="white"/>
</svg>
