<svg width="121" height="121" viewBox="0 0 121 121" fill="none" xmlns="http://www.w3.org/2000/svg">
<path d="M60.5068 120.621C52.2323 120.621 44.4676 119.053 37.2127 115.916C29.9578 112.818 23.5853 108.523 18.0951 103.033C12.6049 97.5038 8.29115 91.1313 5.15389 83.9156C2.05586 76.6607 0.506836 68.896 0.506836 60.6215C0.506836 52.347 2.05586 44.5822 5.15389 37.3273C8.29115 30.0724 12.6049 23.6999 18.0951 18.2097C23.5853 12.7195 29.9578 8.42538 37.2127 5.32734C44.4676 2.19009 52.2323 0.62146 60.5068 0.62146C68.7813 0.62146 76.5461 2.19009 83.801 5.32734C91.0559 8.42538 97.4284 12.7195 102.919 18.2097C108.409 23.6999 112.703 30.0724 115.801 37.3273C118.938 44.5822 120.507 52.347 120.507 60.6215C120.507 68.896 118.938 76.6607 115.801 83.9156C112.703 91.1313 108.409 97.5038 102.919 103.033C97.4284 108.523 91.0559 112.818 83.801 115.916C76.5461 119.053 68.7813 120.621 60.5068 120.621ZM53.9186 89.3273C54.9382 89.3273 55.8598 89.0921 56.6833 88.6215C57.5068 88.1509 58.2323 87.445 58.8598 86.5038L86.5068 42.9156C86.8598 42.3273 87.1931 41.6999 87.5068 41.0332C87.8206 40.3666 87.9774 39.6999 87.9774 39.0332C87.9774 37.6607 87.4676 36.5822 86.448 35.7979C85.4284 34.9744 84.2912 34.5626 83.0363 34.5626C81.3108 34.5626 79.899 35.4646 78.801 37.2685L53.6833 77.6215L41.7421 62.2097C40.997 61.2293 40.2715 60.5626 39.5657 60.2097C38.899 59.8568 38.1343 59.6803 37.2715 59.6803C35.9382 59.6803 34.8206 60.1705 33.9186 61.1509C33.0166 62.0921 32.5657 63.2293 32.5657 64.5626C32.5657 65.2293 32.6833 65.896 32.9186 66.5626C33.1931 67.1901 33.5461 67.7979 33.9774 68.3862L48.7421 86.5038C49.5264 87.5234 50.3304 88.2489 51.1539 88.6803C51.9774 89.1117 52.899 89.3273 53.9186 89.3273Z" fill="#35C759"/>
</svg>
