<svg width="136" height="40" viewBox="0 0 136 40" fill="none" xmlns="http://www.w3.org/2000/svg">
<g clip-path="url(#clip0_9451_4241)">
<rect width="40" height="40" fill="url(#paint0_linear_9451_4241)"/>
<rect width="40" height="40" fill="url(#paint1_linear_9451_4241)"/>
<path d="M20 30.7031C14.0888 30.7031 9.29688 25.9112 9.29688 20C9.29688 14.0888 14.0888 9.29688 20 9.29688C25.9112 9.29688 30.7031 14.0888 30.7031 20C30.7031 25.9112 25.9112 30.7031 20 30.7031Z" fill="url(#paint2_linear_9451_4241)"/>
<path d="M-17.6209 56.5351H17.463C26.7041 56.5351 33.87 49.5312 33.87 40.5172C33.87 31.5676 26.5742 24.7909 16.8793 24.7261C13.1502 17.6251 6.43853 13.2801 -1.57056 13.2801C-12.1411 13.2801 -21.0904 21.4836 -22.0955 32.1514C-27.4781 33.7727 -31.1421 38.3769 -31.1421 44.2134C-31.1421 51.4118 -25.7271 56.5351 -17.6209 56.5351Z" fill="#F6FAFF"/>
</g>
<rect x="0.5" y="0.5" width="39" height="39" rx="7.5" stroke="#C7C7CC" stroke-opacity="0.5"/>
<path d="M56.7188 25.6484C55.9766 25.6484 55.5703 25.2891 55.3359 24.4453L52.9844 15.9141C52.9062 15.625 52.8594 15.3438 52.8594 15.1328C52.8594 14.4766 53.3047 14.0703 54.0234 14.0703C54.6406 14.0703 55.0156 14.4141 55.1562 15.0859L56.8438 22.3906H56.9062L58.8047 15.125C58.9844 14.3906 59.3594 14.0703 60.0156 14.0703C60.6562 14.0703 61.0469 14.4141 61.2188 15.1094L63.1172 22.3906H63.1797L64.8672 15.0859C65.0156 14.4062 65.3906 14.0703 66.0078 14.0703C66.7266 14.0703 67.1719 14.4766 67.1719 15.1328C67.1719 15.3359 67.125 15.6172 67.0469 15.9141L64.6875 24.4609C64.4531 25.2891 64.0469 25.6484 63.3203 25.6484C62.5625 25.6484 62.1484 25.2969 61.9219 24.4531L60.0469 17.7969H59.9766L58.1094 24.4531C57.8828 25.2812 57.4609 25.6484 56.7188 25.6484ZM71.3984 25.6797C68.7812 25.6797 67.2422 24.0625 67.2422 21.3516C67.2422 18.6562 68.8125 16.9453 71.2891 16.9453C73.6641 16.9453 75.2578 18.5703 75.2578 20.8438C75.2578 21.4766 74.8984 21.8359 74.2656 21.8359H69.4844V21.9375C69.4844 23.1797 70.2344 23.9922 71.3906 23.9922C72.2266 23.9922 72.7734 23.7109 73.3906 22.9844C73.6328 22.7344 73.8359 22.6484 74.1328 22.6484C74.625 22.6484 75.0234 22.9609 75.0234 23.4844C75.0234 23.6641 74.9688 23.8516 74.8672 24.0391C74.3125 25.0703 73.0156 25.6797 71.3984 25.6797ZM69.5078 20.4375H73.0625C73.0156 19.3438 72.3125 18.6328 71.3125 18.6328C70.3125 18.6328 69.5859 19.3672 69.5078 20.4375ZM78.9141 25.6328C77.3203 25.6328 76.1094 24.6016 76.1094 23.0938C76.1094 21.5703 77.2812 20.6875 79.375 20.5625L81.4844 20.4375V19.8828C81.4844 19.1016 80.9375 18.6484 80.0781 18.6484C79.3828 18.6484 78.9609 18.875 78.4531 19.5312C78.2031 19.8125 77.9141 19.9531 77.5469 19.9531C76.9922 19.9531 76.5938 19.5938 76.5938 19.0781C76.5938 18.8984 76.6328 18.7344 76.7109 18.5625C77.1016 17.5625 78.4453 16.9453 80.1797 16.9453C82.3281 16.9453 83.7266 18.0547 83.7266 19.7422V24.5156C83.7266 25.2734 83.2656 25.6641 82.6172 25.6641C82 25.6641 81.5703 25.3203 81.5234 24.6484V24.2188H81.4766C81.0078 25.1094 79.9609 25.6328 78.9141 25.6328ZM79.6641 23.9844C80.6641 23.9844 81.4844 23.3359 81.4844 22.4297V21.8203L79.7188 21.9297C78.8672 21.9922 78.3828 22.375 78.3828 22.9688C78.3828 23.5938 78.8984 23.9844 79.6641 23.9844ZM85.8125 23.3594V18.8438H85.375C84.8359 18.8438 84.4922 18.5156 84.4922 17.9844C84.4922 17.4531 84.8359 17.125 85.375 17.125H85.8125V16.1953C85.8125 15.4609 86.2422 15.0078 86.9531 15.0078C87.6641 15.0078 88.0938 15.4609 88.0938 16.1953V17.125H88.8984C89.4375 17.125 89.7734 17.4609 89.7734 17.9844C89.7734 18.5078 89.4375 18.8438 88.8984 18.8438H88.0938V22.8516C88.0938 23.4453 88.2969 23.6953 88.7891 23.7344L88.9375 23.75C89.5 23.8125 89.8047 24.0469 89.8047 24.5781C89.8047 25.25 89.1484 25.5938 88.1875 25.5938H88.1094C86.5859 25.5938 85.8125 24.8359 85.8125 23.3594ZM92.0859 25.6641C91.4219 25.6641 90.9453 25.2578 90.9453 24.4766V15.2266C90.9453 14.4922 91.3672 14.0547 92.0703 14.0547C92.7734 14.0547 93.1875 14.4922 93.1875 15.2266V18.6172H93.2344C93.6797 17.5625 94.5938 16.9688 95.8672 16.9688C97.7266 16.9688 98.7891 18.1719 98.7891 20.1094V24.4766C98.7891 25.2578 98.3203 25.6641 97.6484 25.6641C96.9844 25.6641 96.5078 25.2578 96.5078 24.4766V20.5938C96.5078 19.5156 95.9766 18.8594 94.9375 18.8594C93.8594 18.8594 93.2266 19.6172 93.2266 20.7188V24.4766C93.2266 25.2578 92.7578 25.6641 92.0859 25.6641ZM104.102 25.6797C101.484 25.6797 99.9453 24.0625 99.9453 21.3516C99.9453 18.6562 101.516 16.9453 103.992 16.9453C106.367 16.9453 107.961 18.5703 107.961 20.8438C107.961 21.4766 107.602 21.8359 106.969 21.8359H102.188V21.9375C102.188 23.1797 102.938 23.9922 104.094 23.9922C104.93 23.9922 105.477 23.7109 106.094 22.9844C106.336 22.7344 106.539 22.6484 106.836 22.6484C107.328 22.6484 107.727 22.9609 107.727 23.4844C107.727 23.6641 107.672 23.8516 107.57 24.0391C107.016 25.0703 105.719 25.6797 104.102 25.6797ZM102.211 20.4375H105.766C105.719 19.3438 105.016 18.6328 104.016 18.6328C103.016 18.6328 102.289 19.3672 102.211 20.4375ZM110.281 25.6641C109.594 25.6641 109.141 25.2344 109.141 24.4766V18.1016C109.141 17.375 109.586 16.9531 110.242 16.9531C110.883 16.9531 111.32 17.375 111.32 18.1016V18.6484H111.367C111.586 17.6094 112.273 16.9922 113.109 16.9922C113.414 16.9922 113.656 17.0625 113.82 17.2031C114.039 17.375 114.148 17.6562 114.148 18.0469C114.148 18.4062 114.039 18.6797 113.82 18.8672C113.602 19.0547 113.273 19.1562 112.828 19.1641C111.789 19.1797 111.422 19.7656 111.422 20.7578V24.4766C111.422 25.2344 110.977 25.6641 110.281 25.6641ZM119.516 25.6484C118.773 25.6484 118.336 25.1953 118.336 24.4219V15.4531C118.336 14.6797 118.773 14.2266 119.516 14.2266H124.789C125.438 14.2266 125.859 14.5938 125.859 15.2031C125.859 15.8125 125.43 16.1797 124.789 16.1797H120.695V19.1953H124.406C125.016 19.1953 125.414 19.5469 125.414 20.125C125.414 20.7109 125.023 21.0625 124.406 21.0625H120.695V24.4219C120.695 25.1953 120.258 25.6484 119.516 25.6484ZM128.102 16.0859C127.414 16.0859 126.883 15.5625 126.883 14.9062C126.883 14.2422 127.414 13.7266 128.102 13.7266C128.789 13.7266 129.32 14.2422 129.32 14.9062C129.32 15.5625 128.789 16.0859 128.102 16.0859ZM128.102 25.6641C127.391 25.6641 126.961 25.2188 126.961 24.4766V18.1484C126.961 17.4062 127.391 16.9531 128.102 16.9531C128.805 16.9531 129.242 17.4062 129.242 18.1484V24.4766C129.242 25.2188 128.805 25.6641 128.102 25.6641ZM131.375 23.3594V18.8438H130.938C130.398 18.8438 130.055 18.5156 130.055 17.9844C130.055 17.4531 130.398 17.125 130.938 17.125H131.375V16.1953C131.375 15.4609 131.805 15.0078 132.516 15.0078C133.227 15.0078 133.656 15.4609 133.656 16.1953V17.125H134.461C135 17.125 135.336 17.4609 135.336 17.9844C135.336 18.5078 135 18.8438 134.461 18.8438H133.656V22.8516C133.656 23.4453 133.859 23.6953 134.352 23.7344L134.5 23.75C135.062 23.8125 135.367 24.0469 135.367 24.5781C135.367 25.25 134.711 25.5938 133.75 25.5938H133.672C132.148 25.5938 131.375 24.8359 131.375 23.3594Z" fill="black"/>
<defs>
<linearGradient id="paint0_linear_9451_4241" x1="20" y1="0" x2="20" y2="40" gradientUnits="userSpaceOnUse">
<stop stop-color="#0079CC"/>
<stop offset="1" stop-color="#005AB8"/>
</linearGradient>
<linearGradient id="paint1_linear_9451_4241" x1="40" y1="40" x2="40" y2="0" gradientUnits="userSpaceOnUse">
<stop stop-opacity="0.2"/>
<stop offset="1" stop-opacity="0.01"/>
</linearGradient>
<linearGradient id="paint2_linear_9451_4241" x1="20" y1="9.29687" x2="20" y2="30.7031" gradientUnits="userSpaceOnUse">
<stop stop-color="#FECF00"/>
<stop offset="1" stop-color="#FFB300"/>
</linearGradient>
<clipPath id="clip0_9451_4241">
<rect width="40" height="40" rx="8" fill="white"/>
</clipPath>
</defs>
</svg>
