<svg width="32" height="32" viewBox="0 0 32 32" fill="none" xmlns="http://www.w3.org/2000/svg">
<path d="M22.5625 19.6172C16.2227 19.6172 12.168 15.6445 12.168 9.29297C12.168 7.98047 12.4844 6.10547 12.9063 5.13281C13.0117 4.86328 13.0352 4.69922 13.0352 4.58203C13.0352 4.26563 12.8008 3.91406 12.3438 3.91406C12.2148 3.91406 11.9336 3.94922 11.6758 4.04297C7.33984 5.77734 4.43359 10.4414 4.43359 15.3516C4.43359 22.2422 9.68359 27.1641 16.5508 27.1641C21.6016 27.1641 25.9727 24.1055 27.4258 20.2852C27.5313 20.0156 27.5547 19.7344 27.5547 19.6289C27.5547 19.1953 27.1914 18.9023 26.8633 18.9023C26.7109 18.9023 26.582 18.9375 26.3594 19.0078C25.457 19.3008 24.0039 19.6172 22.5625 19.6172Z" fill="white"/>
</svg>
