<svg width="32" height="32" viewBox="0 0 32 32" fill="none" xmlns="http://www.w3.org/2000/svg">
<path d="M16 27.5039C22.5391 27.5039 27.9531 22.0898 27.9531 15.5508C27.9531 9.02344 22.5273 3.59766 15.9883 3.59766C9.46094 3.59766 4.04688 9.02344 4.04688 15.5508C4.04688 22.0898 9.47266 27.5039 16 27.5039ZM10.6094 16.1016C10.6094 13.1367 13.0469 10.8164 15.7656 10.8164C15.8711 10.8164 16 10.8281 16.0938 10.8398L15.25 9.97266C15.1211 9.83203 15.0273 9.62109 15.0273 9.41016C15.0273 8.97656 15.3555 8.63672 15.8008 8.63672C16.0117 8.63672 16.2227 8.73047 16.3516 8.88281L18.6719 11.2383C18.9531 11.543 18.9766 12.0703 18.6719 12.3633L16.3281 14.707C16.1992 14.8359 16 14.9414 15.8008 14.9414C15.3672 14.9414 15.0273 14.6016 15.0273 14.168C15.0273 13.957 15.1211 13.7578 15.2617 13.6172L16.4336 12.457C16.3164 12.4336 16.1523 12.4219 16 12.4219C13.9375 12.4219 12.2852 14.0859 12.2852 16.1484C12.2852 18.2227 13.9375 19.8867 16 19.8867C18.0625 19.8867 19.7148 18.2227 19.7148 16.1484C19.7148 15.6914 20.1016 15.3164 20.5586 15.3164C21.0039 15.3164 21.3906 15.6914 21.3906 16.1484C21.3906 19.125 18.9883 21.5508 16 21.5508C13.0117 21.5508 10.6094 19.125 10.6094 16.1016Z" fill="white"/>
</svg>
