<svg width="32" height="32" viewBox="0 0 32 32" fill="none" xmlns="http://www.w3.org/2000/svg">
<path d="M22.8673 20.3087L27.4142 15.7618C28.715 14.461 28.6798 12.9141 27.3556 11.5665L26.7579 10.9571C25.5392 12.5391 22.0587 14.3907 21.3908 13.7227C21.2853 13.6173 21.2736 13.4063 21.4259 13.2423C22.8439 11.8243 23.7697 10.4415 23.9806 8.19147L17.9572 2.15632C16.8439 1.04304 14.9103 1.40632 14.3829 3.51569C13.6447 6.51569 12.9767 8.26179 12.2501 9.70319L22.8673 20.3087ZM5.01966 27.9727C6.84778 29.8126 9.21497 29.836 11.0197 28.0313C12.4611 26.5899 13.8556 23.3321 14.922 21.7032L17.7579 24.5508C18.6251 25.4298 19.6798 25.4298 20.5001 24.586L21.5079 23.5782C22.3634 22.711 22.3517 21.7266 21.4728 20.8477L12.1564 11.5196C11.2658 10.6407 10.2697 10.629 9.41419 11.4844L8.40638 12.4923C7.56263 13.336 7.56263 14.3555 8.44153 15.2344L11.2775 18.0704C9.66028 19.1368 6.41419 20.5313 4.96107 21.9727C3.1681 23.7774 3.17982 26.1563 5.01966 27.9727ZM8.14857 26.4493C7.33997 26.4493 6.69544 25.793 6.69544 24.9962C6.69544 24.1993 7.33997 23.5548 8.14857 23.5548C8.94544 23.5548 9.58997 24.1993 9.58997 24.9962C9.58997 25.793 8.94544 26.4493 8.14857 26.4493Z" fill="white"/>
</svg>
