<svg width="131" height="32" viewBox="0 0 131 32" fill="none" xmlns="http://www.w3.org/2000/svg">
<g clip-path="url(#clip0)">
<rect width="32" height="32" fill="white"/>
<rect width="32" height="32" rx="6" fill="#3896F6"/>
<rect width="32" height="32" rx="6" fill="url(#paint0_linear)"/>
<path d="M16 24.5625C11.2711 24.5625 7.4375 20.7289 7.4375 16C7.4375 11.2711 11.2711 7.4375 16 7.4375C20.7289 7.4375 24.5625 11.2711 24.5625 16C24.5625 20.7289 20.7289 24.5625 16 24.5625Z" fill="#F6C338"/>
<path fill-rule="evenodd" clip-rule="evenodd" d="M11.375 42.1875C11.375 42.1875 -1.41499 42.5 -4.875 42.5C-13.5044 42.5 -20.5 35.5044 -20.5 26.875C-20.5 18.2456 -13.5044 11.25 -4.875 11.25C1.70637 11.25 7.33737 15.319 9.63953 21.0785C10.2043 20.9858 10.784 20.9375 11.375 20.9375C17.243 20.9375 22 25.6945 22 31.5625C22 37.4305 17.243 42.1875 11.375 42.1875Z" fill="#F6FAFF"/>
</g>
<path d="M43.6307 22H46.0284L48.2386 14.392H48.3295L50.5455 22H52.9432L56.2727 10.3636H53.5852L51.6591 18.4659H51.5568L49.4375 10.3636H47.1364L45.0114 18.4489H44.9148L42.9886 10.3636H40.3011L43.6307 22ZM60.5838 22.1705C62.7429 22.1705 64.1974 21.1193 64.5384 19.5L62.2997 19.3523C62.0554 20.017 61.4304 20.3636 60.6236 20.3636C59.4134 20.3636 58.6463 19.5625 58.6463 18.2614V18.2557H64.5895V17.5909C64.5895 14.625 62.794 13.1591 60.4872 13.1591C57.919 13.1591 56.2543 14.983 56.2543 17.6761C56.2543 20.4432 57.8963 22.1705 60.5838 22.1705ZM58.6463 16.7557C58.6974 15.7614 59.4531 14.9659 60.527 14.9659C61.5781 14.9659 62.3054 15.7159 62.3111 16.7557H58.6463ZM68.6577 22.1648C69.9474 22.1648 70.7827 21.6023 71.2088 20.7898H71.277V22H73.5724V16.1136C73.5724 14.0341 71.8111 13.1591 69.8679 13.1591C67.777 13.1591 66.402 14.1591 66.0668 15.75L68.3054 15.9318C68.4702 15.3523 68.9872 14.9261 69.8565 14.9261C70.6804 14.9261 71.152 15.3409 71.152 16.0568V16.0909C71.152 16.6534 70.5554 16.7273 69.0384 16.875C67.3111 17.0341 65.7599 17.6136 65.7599 19.5625C65.7599 21.2898 66.9929 22.1648 68.6577 22.1648ZM69.3509 20.4943C68.6065 20.4943 68.0724 20.1477 68.0724 19.483C68.0724 18.8011 68.6349 18.4659 69.4872 18.3466C70.0156 18.2727 70.8793 18.1477 71.169 17.9545V18.8807C71.169 19.7955 70.4134 20.4943 69.3509 20.4943ZM80.0923 13.2727H78.4503V11.1818H76.0298V13.2727H74.8366V15.0909H76.0298V19.6364C76.0185 21.3466 77.1832 22.1932 78.9389 22.1193C79.5639 22.0966 80.0071 21.9716 80.2514 21.892L79.8707 20.0909C79.7514 20.1136 79.4957 20.1705 79.2685 20.1705C78.7855 20.1705 78.4503 19.9886 78.4503 19.3182V15.0909H80.0923V13.2727ZM84.277 16.9545C84.2827 15.8295 84.9702 15.1705 85.9588 15.1705C86.9418 15.1705 87.5213 15.8011 87.5156 16.875V22H89.9361V16.4432C89.9418 14.3977 88.7372 13.1591 86.919 13.1591C85.5952 13.1591 84.7088 13.7841 84.3111 14.8125H84.2088V10.3636H81.8565V22H84.277V16.9545ZM95.8182 22.1705C97.9773 22.1705 99.4318 21.1193 99.7727 19.5L97.5341 19.3523C97.2898 20.017 96.6648 20.3636 95.858 20.3636C94.6477 20.3636 93.8807 19.5625 93.8807 18.2614V18.2557H99.8239V17.5909C99.8239 14.625 98.0284 13.1591 95.7216 13.1591C93.1534 13.1591 91.4886 14.983 91.4886 17.6761C91.4886 20.4432 93.1307 22.1705 95.8182 22.1705ZM93.8807 16.7557C93.9318 15.7614 94.6875 14.9659 95.7614 14.9659C96.8125 14.9659 97.5398 15.7159 97.5455 16.7557H93.8807ZM101.403 22H103.824V17.0625C103.824 15.9886 104.608 15.25 105.676 15.25C106.011 15.25 106.472 15.3068 106.699 15.3807V13.233C106.483 13.1818 106.182 13.1477 105.938 13.1477C104.96 13.1477 104.159 13.7159 103.841 14.7955H103.75V13.2727H101.403V22ZM111.699 22H114.159V17.1932H118.892V15.1648H114.159V12.392H119.403V10.3636H111.699V22ZM121.013 22H123.433V13.2727H121.013V22ZM122.229 12.1477C122.95 12.1477 123.541 11.5966 123.541 10.9205C123.541 10.25 122.95 9.69886 122.229 9.69886C121.513 9.69886 120.922 10.25 120.922 10.9205C120.922 11.5966 121.513 12.1477 122.229 12.1477ZM130.014 13.2727H128.372V11.1818H125.952V13.2727H124.759V15.0909H125.952V19.6364C125.94 21.3466 127.105 22.1932 128.861 22.1193C129.486 22.0966 129.929 21.9716 130.173 21.892L129.793 20.0909C129.673 20.1136 129.418 20.1705 129.19 20.1705C128.707 20.1705 128.372 19.9886 128.372 19.3182V15.0909H130.014V13.2727Z" fill="#111111"/>
<defs>
<linearGradient id="paint0_linear" x1="32" y1="32" x2="32" y2="0" gradientUnits="userSpaceOnUse">
<stop stop-opacity="0.2"/>
<stop offset="1" stop-opacity="0.01"/>
</linearGradient>
<clipPath id="clip0">
<rect width="32" height="32" fill="white"/>
</clipPath>
</defs>
</svg>
