<svg width="96" height="96" viewBox="0 0 96 96" fill="none" xmlns="http://www.w3.org/2000/svg">
<path d="M55.6914 88.0001C57.1702 88.0001 58.4481 87.4054 59.525 86.2159C60.602 85.0264 61.5263 83.4512 62.2978 81.4901L86.7945 17.4998C87.1803 16.5032 87.4777 15.5789 87.6866 14.727C87.8955 13.8751 88 13.0794 88 12.34C88 11.0219 87.6062 9.96908 86.8186 9.18145C86.031 8.39382 84.9782 8 83.6601 8C82.9207 8 82.125 8.10449 81.2731 8.31346C80.4212 8.52244 79.513 8.8198 78.5485 9.20555L14.1241 33.8951C12.4203 34.5381 10.9737 35.39 9.78421 36.4509C8.59474 37.5118 8 38.7978 8 40.3087C8 42.2376 8.65099 43.6119 9.95298 44.4317C11.255 45.2514 12.8704 45.9506 14.7992 46.5293L41.6106 54.4377L49.4225 80.815C50.0012 82.8404 50.7085 84.5442 51.5444 85.9266C52.3802 87.3089 53.7625 88.0001 55.6914 88.0001ZM43.5395 47.8795L18.1748 40.0193C18.0141 39.9551 17.9016 39.8908 17.8372 39.8265C17.773 39.7622 17.7409 39.6979 17.7409 39.6336C17.7409 39.4085 17.8855 39.2478 18.1748 39.1513L66.1556 21.0199C67.8594 20.377 69.5391 19.6537 71.1947 18.85C72.8503 18.0463 74.514 17.2587 76.1856 16.4871C74.739 17.6765 73.2281 18.9142 71.6528 20.2002C70.0776 21.4861 68.6952 22.7238 67.5058 23.9132L43.5395 47.8795ZM56.4147 78.3557C56.3183 78.3557 56.2379 78.3075 56.1736 78.2111C56.1093 78.1146 56.045 77.986 55.9808 77.8253L48.1206 52.4606L72.0869 28.5425C73.2763 27.321 74.5301 25.9145 75.8481 24.3232C77.1662 22.7318 78.4039 21.1968 79.5612 19.718C78.7896 21.3896 77.994 23.0613 77.1742 24.733C76.3545 26.4047 75.6231 28.1246 74.9801 29.8928L56.8488 77.8253C56.7202 78.1789 56.5755 78.3557 56.4147 78.3557Z" fill="#007AFF"/>
</svg>
